<?xml version="1.0" encoding="iso-8859-1"?>
<!-- Generator: Adobe Illustrator 19.0.0, SVG Export Plug-In . SVG Version: 6.00 Build 0)  -->
<svg xmlns="http://www.w3.org/2000/svg" xmlns:xlink="http://www.w3.org/1999/xlink" version="1.1" id="Capa_1" x="0px" y="0px" viewBox="0 0 496 496" style="enable-background:new 0 0 496 496;" xml:space="preserve" width="512px" height="512px">
<g>
	<g>
		<g>
			<path d="M248,292c13.232,0,24-10.768,24-24s-10.768-24-24-24s-24,10.768-24,24S234.768,292,248,292z M248,260     c4.408,0,8,3.584,8,8c0,4.416-3.592,8-8,8c-4.408,0-8-3.584-8-8C240,263.584,243.592,260,248,260z" fill="#FFFFFF"/>
			<path d="M479.928,115.264l-0.032-0.032C489.84,105.12,496,91.272,496,76c0-30.88-25.12-56-56-56H176V4h-64v26.848     C98.792,14.496,78.608,4,56,4H0v48h56c13.232,0,24,10.768,24,24s-10.768,24-24,24H0v48h56c22.608,0,42.792-10.496,56-26.848V148     h64v-16h128.808L208.4,228.4l0.016,0.016C198.28,238.56,192,252.56,192,268v160h-16v32c0,8.824-7.176,16-16,16v16h176v-16     c-8.824,0-16-7.176-16-16v-32h-16V291.192L479.928,115.264z M56,132H16v-16h40c22.056,0,40-17.944,40-40     c0-22.056-17.944-40-40-40H16V20h40c30.88,0,56,25.12,56,56S86.88,132,56,132z M440,36c22.056,0,40,17.944,40,40     c0,22.056-17.944,40-40,40c-22.056,0-40-17.944-40-40C400,53.944,417.944,36,440,36z M176,116V68h-16v64h-32V20h32v32h16V36     h224.88c-0.04,0.04-0.08,0.064-0.112,0.104l-0.032-0.032L320.808,116H176z M248,228c22.056,0,40,17.944,40,40     c0,22.056-17.944,40-40,40c-22.056,0-40-17.944-40-40C208,245.944,225.944,228,248,228z M308.296,476H187.704     c2.736-4.712,4.296-10.176,4.296-16v-16h64v-16h-48V307.112C218.176,317.52,232.336,324,248,324s29.824-6.48,40-16.888V428h-16     v16h32v16C304,465.824,305.56,471.288,308.296,476z M248,212c-0.2,0-0.4,0.032-0.6,0.032L327.432,132H328v-0.568L384.032,75.4     c0,0.2-0.032,0.4-0.032,0.6c0,30.88,25.12,56,56,56c0.2,0,0.4-0.032,0.6-0.032L304,268.568V268C304,237.12,278.88,212,248,212z" fill="#FFFFFF"/>
			<path d="M440,100c13.232,0,24-10.768,24-24s-10.768-24-24-24s-24,10.768-24,24S426.768,100,440,100z M440,68c4.408,0,8,3.592,8,8     s-3.592,8-8,8c-4.408,0-8-3.592-8-8S435.592,68,440,68z" fill="#FFFFFF"/>
			
				<rect x="347.999" y="121.807" transform="matrix(0.7071 0.7071 -0.7071 0.7071 234.3989 -197.8282)" width="16" height="124.447" fill="#FFFFFF"/>
			<rect x="192" y="52" width="152" height="16" fill="#FFFFFF"/>
			<rect x="256" y="340" width="16" height="72" fill="#FFFFFF"/>
		</g>
	</g>
</g>
<g>
</g>
<g>
</g>
<g>
</g>
<g>
</g>
<g>
</g>
<g>
</g>
<g>
</g>
<g>
</g>
<g>
</g>
<g>
</g>
<g>
</g>
<g>
</g>
<g>
</g>
<g>
</g>
<g>
</g>
</svg>
